<svg width="36" height="36" viewBox="0 0 36 36" fill="none" xmlns="http://www.w3.org/2000/svg">
<path fill-rule="evenodd" clip-rule="evenodd" d="M21.3232 3.63867C20.7832 3.41666 20.0985 3.41666 18.7292 3.41666C17.3598 3.41666 16.6751 3.41666 16.1351 3.63867C15.415 3.9347 14.8428 4.5025 14.5446 5.21716C14.4084 5.5434 14.3551 5.9228 14.3343 6.47623C14.3036 7.28952 13.8834 8.04233 13.1732 8.44926C12.463 8.85618 11.5959 8.84099 10.8709 8.46068C10.3776 8.20189 10.0198 8.05798 9.66707 8.01189C8.89429 7.91092 8.11276 8.11875 7.4944 8.58966C7.03062 8.94284 6.68827 9.5313 6.0036 10.7082C5.31893 11.8852 4.9766 12.4736 4.9003 13.0488C4.79855 13.8157 5.00797 14.5914 5.48247 15.2051C5.69904 15.4852 6.00341 15.7206 6.47581 16.0152C7.17028 16.4483 7.61713 17.1861 7.61709 18C7.61704 18.8139 7.17021 19.5515 6.47581 19.9845C6.00334 20.2792 5.69891 20.5147 5.48232 20.7949C5.00782 21.4086 4.79842 22.1841 4.90015 22.951C4.97645 23.5262 5.3188 24.1148 6.00345 25.2917C6.68813 26.4685 7.03047 27.0571 7.49425 27.4102C8.11261 27.8811 8.89415 28.0889 9.66692 27.988C10.0197 27.9419 10.3774 27.7979 10.8707 27.5392C11.5958 27.1589 12.4629 27.1437 13.1731 27.5506C13.8833 27.9576 14.3036 28.7104 14.3343 29.5239C14.3551 30.0772 14.4084 30.4566 14.5446 30.7829C14.8428 31.4974 15.415 32.0653 16.1351 32.3614C16.6751 32.5833 17.3598 32.5833 18.7292 32.5833C20.0985 32.5833 20.7832 32.5833 21.3232 32.3614C22.0434 32.0653 22.6155 31.4974 22.9137 30.7829C23.0499 30.4566 23.1033 30.0772 23.1241 29.5237C23.1548 28.7104 23.5749 27.9576 24.2851 27.5506C24.9953 27.1436 25.8625 27.1589 26.5875 27.5392C27.0809 27.7979 27.4385 27.9417 27.7912 27.9878C28.564 28.0889 29.3455 27.8811 29.9639 27.4102C30.4278 27.057 30.77 26.4685 31.4547 25.2915C32.1394 24.1146 32.4817 23.5262 32.5581 22.951C32.6597 22.1841 32.4503 21.4084 31.9759 20.7947C31.7592 20.5146 31.4549 20.2791 30.9824 19.9845C30.2881 19.5515 29.8412 18.8137 29.8412 17.9998C29.8412 17.1859 30.2881 16.4485 30.9824 16.0155C31.455 15.7208 31.7594 15.4854 31.9761 15.2051C32.4505 14.5915 32.6599 13.8158 32.5582 13.0489C32.4818 12.4737 32.1396 11.8852 31.4549 10.7083C30.7702 9.5314 30.4279 8.94294 29.964 8.58976C29.3457 8.11885 28.5642 7.91102 27.7914 8.012C27.4386 8.05808 27.0809 8.20197 26.5877 8.46074C25.8626 8.84106 24.9955 8.85627 24.2853 8.44931C23.5751 8.04236 23.1548 7.28949 23.124 6.47615C23.1031 5.92277 23.0499 5.54339 22.9137 5.21716C22.6155 4.5025 22.0434 3.9347 21.3232 3.63867ZM18.7292 22.375C21.1639 22.375 23.1374 20.4163 23.1374 18C23.1374 15.5837 21.1639 13.625 18.7292 13.625C16.2945 13.625 14.3209 15.5837 14.3209 18C14.3209 20.4163 16.2945 22.375 18.7292 22.375Z" fill="white"/>
</svg>
